{"accessors" : [{"bufferView" : 0, "byteOffset" : 0, "componentType" : 5123, "count" : 888, "type" : "SCALAR", "max" : [887], "min" : [0]}, {"bufferView" : 1, "byteOffset" : 0, "componentType" : 5126, "count" : 888, "type" : "VEC3", "max" : [1.9293596744537354, 0.21072526276111603, 0.8934680819511414], "min" : [-2.7425200939178467, -0.21072526276111603, 0.6585314869880676]}, {"bufferView" : 1, "byteOffset" : 12, "componentType" : 5126, "count" : 888, "type" : "VEC3", "max" : [1.0000044107437134, 1.0000044107437134, 1.0000044107437134], "min" : [-1.0000044107437134, -1.0000044107437134, -1.0000044107437134]}, {"bufferView" : 1, "byteOffset" : 24, "componentType" : 5126, "count" : 888, "type" : "VEC2", "max" : [1, -0], "min" : [-8.940696716308594E-08, -1]}, {"bufferView" : 0, "byteOffset" : 1776, "componentType" : 5123, "count" : 1836, "type" : "SCALAR", "max" : [1835], "min" : [0]}, {"bufferView" : 2, "byteOffset" : 0, "componentType" : 5126, "count" : 1836, "type" : "VEC3", "max" : [1.9967693090438843, 0.3762280344963074, 0.6460688710212708], "min" : [-2.9122846126556396, -0.3762280344963074, -2.726940393447876]}, {"bufferView" : 2, "byteOffset" : 12, "componentType" : 5126, "count" : 1836, "type" : "VEC3", "max" : [1.0000044107437134, 1.0000044107437134, 1.0000044107437134], "min" : [-1.0000044107437134, -1.0000044107437134, -1.0000044107437134]}, {"bufferView" : 2, "byteOffset" : 24, "componentType" : 5126, "count" : 1836, "type" : "VEC2", "max" : [1, -0], "min" : [-8.940696716308594E-08, -1]}, {"bufferView" : 0, "byteOffset" : 5448, "componentType" : 5123, "count" : 294, "type" : "SCALAR", "max" : [293], "min" : [0]}, {"bufferView" : 3, "byteOffset" : 0, "componentType" : 5126, "count" : 294, "type" : "VEC3", "max" : [-0.17441032826900482, 0.35660848021507263, 0.16376148164272308], "min" : [-2.8267602920532227, -0.35660842061042786, -2.7227163314819336]}, {"bufferView" : 3, "byteOffset" : 12, "componentType" : 5126, "count" : 294, "type" : "VEC3", "max" : [0.7047093510627747, 1.0000044107437134, 0.8998157382011414], "min" : [-0.767798662185669, -1.0000044107437134, -0.9990416169166565]}, {"bufferView" : 3, "byteOffset" : 24, "componentType" : 5126, "count" : 294, "type" : "VEC2", "max" : [0.875, -0.6249999403953552], "min" : [0.125, -1.0002566576004028]}, {"bufferView" : 0, "byteOffset" : 6036, "componentType" : 5123, "count" : 384, "type" : "SCALAR", "max" : [383], "min" : [0]}, {"bufferView" : 4, "byteOffset" : 0, "componentType" : 5126, "count" : 384, "type" : "VEC3", "max" : [-0.5369629263877869, 0.2564457356929779, -0.7918980121612549], "min" : [-1.5188615322113037, -0.2564452886581421, -2.6250648498535156]}, {"bufferView" : 4, "byteOffset" : 12, "componentType" : 5126, "count" : 384, "type" : "VEC3", "max" : [0.9964277744293213, 1.0000044107437134, 0.9784854650497437], "min" : [-0.9964277744293213, -1.0000044107437134, -0.9814134240150452]}, {"bufferView" : 4, "byteOffset" : 24, "componentType" : 5126, "count" : 384, "type" : "VEC2", "max" : [0.875, -0], "min" : [0.125, -1]}, {"bufferView" : 0, "byteOffset" : 6804, "componentType" : 5123, "count" : 2037, "type" : "SCALAR", "max" : [2036], "min" : [0]}, {"bufferView" : 5, "byteOffset" : 0, "componentType" : 5126, "count" : 2037, "type" : "VEC3", "max" : [1.9690237045288086, 0.3200576603412628, 0.7808200716972351], "min" : [-2.9223649501800537, -0.32005780935287476, -0.10600484907627106]}, {"bufferView" : 5, "byteOffset" : 12, "componentType" : 5126, "count" : 2037, "type" : "VEC3", "max" : [1.0000044107437134, 1.0000044107437134, 1.0000044107437134], "min" : [-1.0000044107437134, -1.0000044107437134, -1.0000044107437134]}, {"bufferView" : 5, "byteOffset" : 24, "componentType" : 5126, "count" : 2037, "type" : "VEC2", "max" : [1, -0.01000000536441803], "min" : [-8.940696716308594E-08, -1]}, {"bufferView" : 0, "byteOffset" : 10880, "componentType" : 5123, "count" : 180, "type" : "SCALAR", "max" : [179], "min" : [0]}, {"bufferView" : 6, "byteOffset" : 0, "componentType" : 5126, "count" : 180, "type" : "VEC3", "max" : [1.7168434858322144, 0.14758609235286713, 0.8854751586914062], "min" : [-2.6842002868652344, -0.14758609235286713, 0.791465163230896]}, {"bufferView" : 6, "byteOffset" : 12, "componentType" : 5126, "count" : 180, "type" : "VEC3", "max" : [1.0000044107437134, 1.0000044107437134, 0.8660299181938171], "min" : [-1.0000044107437134, -1.0000044107437134, -0.8660299181938171]}, {"bufferView" : 6, "byteOffset" : 24, "componentType" : 5126, "count" : 180, "type" : "VEC2", "max" : [1, -0.01000000536441803], "min" : [-8.940696716308594E-08, -1]}, {"bufferView" : 0, "byteOffset" : 11240, "componentType" : 5123, "count" : 444, "type" : "SCALAR", "max" : [443], "min" : [0]}, {"bufferView" : 7, "byteOffset" : 0, "componentType" : 5126, "count" : 444, "type" : "VEC3", "max" : [-0.7228774428367615, 0.23967263102531433, 0.12719598412513733], "min" : [-2.5108184814453125, -0.23967240750789642, -2.736332654953003]}, {"bufferView" : 7, "byteOffset" : 12, "componentType" : 5126, "count" : 444, "type" : "VEC3", "max" : [1.0000044107437134, 1.0000044107437134, 1.0000044107437134], "min" : [-1.0000044107437134, -1.0000044107437134, -1.0000044107437134]}, {"bufferView" : 7, "byteOffset" : 24, "componentType" : 5126, "count" : 444, "type" : "VEC2", "max" : [0.875, -0], "min" : [0.125, -1]}, {"bufferView" : 0, "byteOffset" : 12128, "componentType" : 5123, "count" : 606, "type" : "SCALAR", "max" : [605], "min" : [0]}, {"bufferView" : 8, "byteOffset" : 0, "componentType" : 5126, "count" : 606, "type" : "VEC3", "max" : [0.08544798195362091, 0.4036961793899536, 0.24492967128753662], "min" : [-2.4738540649414062, -0.40369611978530884, -0.8898438215255737]}, {"bufferView" : 8, "byteOffset" : 12, "componentType" : 5126, "count" : 606, "type" : "VEC3", "max" : [1.0000044107437134, 1.0000044107437134, 1.0000044107437134], "min" : [-1.0000044107437134, -1.0000044107437134, -0.9973658323287964]}, {"bufferView" : 8, "byteOffset" : 24, "componentType" : 5126, "count" : 606, "type" : "VEC2", "max" : [1, -0], "min" : [-8.940696716308594E-08, -1]}, {"bufferView" : 0, "byteOffset" : 13340, "componentType" : 5123, "count" : 144, "type" : "SCALAR", "max" : [143], "min" : [0]}, {"bufferView" : 9, "byteOffset" : 0, "componentType" : 5126, "count" : 144, "type" : "VEC3", "max" : [-1.5519354343414307, 0.05439276993274689, 0.07372619211673737], "min" : [-1.728251338005066, -0.05439280346035957, -0.6119945645332336]}, {"bufferView" : 9, "byteOffset" : 12, "componentType" : 5126, "count" : 144, "type" : "VEC3", "max" : [2.3456655071640853E-06, 1.0000044107437134, 0.8660315871238708], "min" : [-1.0000044107437134, -1.0000044107437134, -0.8660306334495544]}, {"bufferView" : 9, "byteOffset" : 24, "componentType" : 5126, "count" : 144, "type" : "VEC2", "max" : [0, -0], "min" : [0, -0]}, {"bufferView" : 0, "byteOffset" : 13628, "componentType" : 5123, "count" : 1080, "type" : "SCALAR", "max" : [1079], "min" : [0]}, {"bufferView" : 10, "byteOffset" : 0, "componentType" : 5126, "count" : 1080, "type" : "VEC3", "max" : [-1.0661511421203613, 0.12958115339279175, 0.16054624319076538], "min" : [-1.7301161289215088, -0.12958116829395294, -0.6988146901130676]}, {"bufferView" : 10, "byteOffset" : 12, "componentType" : 5126, "count" : 1080, "type" : "VEC3", "max" : [1.0000044107437134, 1.0000044107437134, 0.8660312294960022], "min" : [-1.0000044107437134, -1.0000044107437134, -0.8660320043563843]}, {"bufferView" : 10, "byteOffset" : 24, "componentType" : 5126, "count" : 1080, "type" : "VEC2", "max" : [0, -0], "min" : [0, -0]}, {"bufferView" : 0, "byteOffset" : 15788, "componentType" : 5123, "count" : 468, "type" : "SCALAR", "max" : [467], "min" : [0]}, {"bufferView" : 11, "byteOffset" : 0, "componentType" : 5126, "count" : 468, "type" : "VEC3", "max" : [-0.769191563129425, 0.12287149578332901, 0.15279871225357056], "min" : [-1.2160788774490356, -0.12287146598100662, -0.6910668611526489]}, {"bufferView" : 11, "byteOffset" : 12, "componentType" : 5126, "count" : 468, "type" : "VEC3", "max" : [1.0000044107437134, 0.998425304889679, 0.8646618723869324], "min" : [0.05617479607462883, -0.998425304889679, -0.8646619319915771]}, {"bufferView" : 11, "byteOffset" : 24, "componentType" : 5126, "count" : 468, "type" : "VEC2", "max" : [0, -0], "min" : [0, -0]}, {"bufferView" : 0, "byteOffset" : 16724, "componentType" : 5123, "count" : 84, "type" : "SCALAR", "max" : [83], "min" : [0]}, {"bufferView" : 12, "byteOffset" : 0, "componentType" : 5126, "count" : 84, "type" : "VEC3", "max" : [-2.787729263305664, 0.04200662672519684, 0.48430949449539185], "min" : [-2.924856185913086, -0.04200680926442146, 0.38729915022850037]}, {"bufferView" : 12, "byteOffset" : 12, "componentType" : 5126, "count" : 84, "type" : "VEC3", "max" : [6.28729708296305E-07, 1.0000044107437134, 0.8660297989845276], "min" : [-1.0000044107437134, -1.0000044107437134, -0.8660297989845276]}, {"bufferView" : 12, "byteOffset" : 24, "componentType" : 5126, "count" : 84, "type" : "VEC2", "max" : [1, -0.01000000536441803], "min" : [-8.940696716308594E-08, -1]}], "asset" : {"generator" : "Aspose.3D 20.11", "version" : "2.0"}, "buffers" : [{"uri" : "buffer.bin", "byteLength" : 287184}], "bufferViews" : [{"buffer" : 0, "byteOffset" : 0, "byteLength" : 16892, "target" : 34963}, {"buffer" : 0, "byteOffset" : 16896, "byteLength" : 28416, "byteStride" : 32, "target" : 34962}, {"buffer" : 0, "byteOffset" : 45316, "byteLength" : 58752, "byteStride" : 32, "target" : 34962}, {"buffer" : 0, "byteOffset" : 104072, "byteLength" : 9408, "byteStride" : 32, "target" : 34962}, {"buffer" : 0, "byteOffset" : 113484, "byteLength" : 12288, "byteStride" : 32, "target" : 34962}, {"buffer" : 0, "byteOffset" : 125776, "byteLength" : 65184, "byteStride" : 32, "target" : 34962}, {"buffer" : 0, "byteOffset" : 190964, "byteLength" : 5760, "byteStride" : 32, "target" : 34962}, {"buffer" : 0, "byteOffset" : 196728, "byteLength" : 14208, "byteStride" : 32, "target" : 34962}, {"buffer" : 0, "byteOffset" : 210940, "byteLength" : 19392, "byteStride" : 32, "target" : 34962}, {"buffer" : 0, "byteOffset" : 230336, "byteLength" : 4608, "byteStride" : 32, "target" : 34962}, {"buffer" : 0, "byteOffset" : 234948, "byteLength" : 34560, "byteStride" : 32, "target" : 34962}, {"buffer" : 0, "byteOffset" : 269512, "byteLength" : 14976, "byteStride" : 32, "target" : 34962}, {"buffer" : 0, "byteOffset" : 284492, "byteLength" : 2688, "byteStride" : 32, "target" : 34962}], "cameras" : [{"perspective" : {"aspectRatio" : 0.5749999682108562, "yfov" : 0.27426770329475403, "zfar" : 10000, "znear" : 10.000000149011612}, "type" : "perspective"}], "materials" : [{"pbrMetallicRoughness" : {"baseColorFactor" : [0, 0, 0, 1], "metallicFactor" : 0, "roughnessFactor" : 0}, "emissiveFactor" : [0, 0, 0], "alphaMode" : "OPAQUE", "doubleSided" : false}, {"pbrMetallicRoughness" : {"baseColorFactor" : [0, 0, 0, 1], "metallicFactor" : 0, "roughnessFactor" : 0}, "emissiveFactor" : [0, 0, 0], "alphaMode" : "OPAQUE", "doubleSided" : false}, {"pbrMetallicRoughness" : {"baseColorFactor" : [0, 0, 0, 1], "metallicFactor" : 0, "roughnessFactor" : 0}, "emissiveFactor" : [0, 0, 0], "alphaMode" : "OPAQUE", "doubleSided" : false}, {"pbrMetallicRoughness" : {"baseColorFactor" : [0, 0, 0, 1], "metallicFactor" : 0, "roughnessFactor" : 0}, "emissiveFactor" : [0, 0, 0], "alphaMode" : "OPAQUE", "doubleSided" : false}, {"pbrMetallicRoughness" : {"baseColorFactor" : [0, 0, 0, 1], "metallicFactor" : 0, "roughnessFactor" : 0}, "emissiveFactor" : [0, 0, 0], "alphaMode" : "OPAQUE", "doubleSided" : false}, {"pbrMetallicRoughness" : {"baseColorFactor" : [0, 0, 0, 1], "metallicFactor" : 0, "roughnessFactor" : 0}, "emissiveFactor" : [0, 0, 0], "alphaMode" : "OPAQUE", "doubleSided" : false}, {"pbrMetallicRoughness" : {"baseColorFactor" : [0, 0, 0, 1], "metallicFactor" : 0, "roughnessFactor" : 0}, "emissiveFactor" : [0, 0, 0], "alphaMode" : "OPAQUE", "doubleSided" : false}, {"pbrMetallicRoughness" : {"baseColorFactor" : [0, 0, 0, 1], "metallicFactor" : 0, "roughnessFactor" : 0}, "emissiveFactor" : [0, 0, 0], "alphaMode" : "OPAQUE", "doubleSided" : false}, {"pbrMetallicRoughness" : {"baseColorFactor" : [0, 0, 0, 1], "metallicFactor" : 0, "roughnessFactor" : 0}, "emissiveFactor" : [0, 0, 0], "alphaMode" : "OPAQUE", "doubleSided" : false}, {"pbrMetallicRoughness" : {"baseColorFactor" : [0, 0, 0, 1], "metallicFactor" : 0, "roughnessFactor" : 0}, "emissiveFactor" : [0, 0, 0], "alphaMode" : "OPAQUE", "doubleSided" : false}, {"pbrMetallicRoughness" : {"baseColorFactor" : [0, 0, 0, 1], "metallicFactor" : 0, "roughnessFactor" : 0}, "emissiveFactor" : [0, 0, 0], "alphaMode" : "OPAQUE", "doubleSided" : false}, {"pbrMetallicRoughness" : {"baseColorFactor" : [0, 0, 0, 1], "metallicFactor" : 0, "roughnessFactor" : 0}, "emissiveFactor" : [0, 0, 0], "alphaMode" : "OPAQUE", "doubleSided" : false}], "meshes" : [{"primitives" : [{"attributes" : {"POSITION" : 1, "NORMAL" : 2, "TEXCOORD_0" : 3}, "indices" : 0, "material" : 0, "mode" : 4}, {"attributes" : {"POSITION" : 5, "NORMAL" : 6, "TEXCOORD_0" : 7}, "indices" : 4, "material" : 1, "mode" : 4}, {"attributes" : {"POSITION" : 9, "NORMAL" : 10, "TEXCOORD_0" : 11}, "indices" : 8, "material" : 2, "mode" : 4}, {"attributes" : {"POSITION" : 13, "NORMAL" : 14, "TEXCOORD_0" : 15}, "indices" : 12, "material" : 3, "mode" : 4}, {"attributes" : {"POSITION" : 17, "NORMAL" : 18, "TEXCOORD_0" : 19}, "indices" : 16, "material" : 4, "mode" : 4}, {"attributes" : {"POSITION" : 21, "NORMAL" : 22, "TEXCOORD_0" : 23}, "indices" : 20, "material" : 5, "mode" : 4}, {"attributes" : {"POSITION" : 25, "NORMAL" : 26, "TEXCOORD_0" : 27}, "indices" : 24, "material" : 6, "mode" : 4}, {"attributes" : {"POSITION" : 29, "NORMAL" : 30, "TEXCOORD_0" : 31}, "indices" : 28, "material" : 7, "mode" : 4}, {"attributes" : {"POSITION" : 33, "NORMAL" : 34, "TEXCOORD_0" : 35}, "indices" : 32, "material" : 8, "mode" : 4}, {"attributes" : {"POSITION" : 37, "NORMAL" : 38, "TEXCOORD_0" : 39}, "indices" : 36, "material" : 9, "mode" : 4}, {"attributes" : {"POSITION" : 41, "NORMAL" : 42, "TEXCOORD_0" : 43}, "indices" : 40, "material" : 10, "mode" : 4}, {"attributes" : {"POSITION" : 45, "NORMAL" : 46, "TEXCOORD_0" : 47}, "indices" : 44, "material" : 11, "mode" : 4}]}], "nodes" : [{"camera" : 0, "matrix" : [-50.87976050126125, -0.4043368836038986, -86.0876940140465, 0, 1.0346537772844204, 99.98881786659733, -1.0811313331983115, 0, 86.08241271573033, -1.4407861712357173, -50.86987204747435, 0, 1735.6142578125, -28.398746490478516, 2905.8291015625, 1], "name" : "Camera"}, {"matrix" : [100, 0, 0, 0, 0, -1.6292067961387602E-05, -99.99999999999868, 0, 0, 99.99999999999868, -1.6292067961387602E-05, 0, 48.0672721862793, 89.61692810058594, 1.2040828551107552E-05, 1], "mesh" : 0, "name" : "Cube.001"}], "scene" : 0, "scenes" : [{"nodes" : [0, 1]}]}